<svg width="18" height="18" viewBox="0 0 18 18" fill="none" xmlns="http://www.w3.org/2000/svg">
<g clip-path="url(#clip0_1086_341)">
<path d="M6.75 11.25V10.5H7.5V11.25H6.75Z" fill="#454545"/>
<path fill-rule="evenodd" clip-rule="evenodd" d="M13.5 1.5C13.8978 1.5 14.2794 1.65804 14.5607 1.93934C14.842 2.22064 15 2.60218 15 3V15C15 15.3978 14.842 15.7794 14.5607 16.0607C14.2794 16.342 13.8978 16.5 13.5 16.5H4.5C4.10218 16.5 3.72064 16.342 3.43934 16.0607C3.15804 15.7794 3 15.3978 3 15V3C3 2.60218 3.15804 2.22064 3.43934 1.93934C3.72064 1.65804 4.10218 1.5 4.5 1.5H13.5ZM7.875 9H6.375C6.07663 9 5.79048 9.11853 5.5795 9.3295C5.36853 9.54048 5.25 9.82663 5.25 10.125V11.625C5.25 11.9234 5.36853 12.2095 5.5795 12.4205C5.79048 12.6315 6.07663 12.75 6.375 12.75H7.875C8.17337 12.75 8.45952 12.6315 8.6705 12.4205C8.88147 12.2095 9 11.9234 9 11.625V10.125C9 9.82663 8.88147 9.54048 8.6705 9.3295C8.45952 9.11853 8.17337 9 7.875 9ZM12 10.125H10.5C10.3088 10.1252 10.125 10.1984 9.98597 10.3296C9.84697 10.4609 9.76332 10.6402 9.75212 10.831C9.74092 11.0219 9.80301 11.2098 9.9257 11.3564C10.0484 11.503 10.2224 11.5972 10.4123 11.6198L10.5 11.625H12C12.1912 11.6248 12.375 11.5516 12.514 11.4204C12.653 11.2891 12.7367 11.1098 12.7479 10.919C12.7591 10.7281 12.697 10.5402 12.5743 10.3936C12.4516 10.247 12.2776 10.1528 12.0878 10.1302L12 10.125ZM7.6005 5.07225L6.54 6.13275L6.2745 5.86725C6.20532 5.79562 6.12256 5.73848 6.03105 5.69917C5.93955 5.65987 5.84114 5.63918 5.74155 5.63831C5.64197 5.63745 5.54321 5.65642 5.45103 5.69413C5.35886 5.73184 5.27512 5.78753 5.2047 5.85795C5.13428 5.92837 5.07859 6.01211 5.04088 6.10428C5.00317 6.19646 4.9842 6.29522 4.98506 6.3948C4.98593 6.49439 5.00662 6.5928 5.04592 6.6843C5.08523 6.77581 5.14237 6.85857 5.214 6.92775L5.877 7.59075C5.96406 7.67783 6.06742 7.74691 6.18118 7.79404C6.29494 7.84117 6.41687 7.86542 6.54 7.86542C6.66314 7.86542 6.78506 7.84117 6.89882 7.79404C7.01258 7.74691 7.11594 7.67783 7.203 7.59075L8.661 6.13275C8.79762 5.9913 8.87321 5.80185 8.87151 5.6052C8.8698 5.40855 8.79092 5.22044 8.65186 5.08139C8.51281 4.94233 8.3247 4.86345 8.12805 4.86174C7.9314 4.86004 7.74195 4.93563 7.6005 5.07225ZM12 6H10.5C10.3088 6.00021 10.125 6.07341 9.98597 6.20464C9.84697 6.33586 9.76332 6.51521 9.75212 6.70605C9.74092 6.89688 9.80301 7.08478 9.9257 7.23137C10.0484 7.37796 10.2224 7.47217 10.4123 7.49475L10.5 7.5H12C12.1912 7.49979 12.375 7.42659 12.514 7.29536C12.653 7.16414 12.7367 6.98479 12.7479 6.79395C12.7591 6.60312 12.697 6.41522 12.5743 6.26863C12.4516 6.12204 12.2776 6.02783 12.0878 6.00525L12 6Z" fill="#454545"/>
</g>
<defs>
<clipPath id="clip0_1086_341">
<rect width="18" height="18" fill="white"/>
</clipPath>
</defs>
</svg>
