<svg width="13" height="13" viewBox="0 0 13 13" fill="none" xmlns="http://www.w3.org/2000/svg">
<path d="M10.2917 11.375V1.62501C10.2914 1.5263 10.2641 1.42954 10.2129 1.34515C10.1617 1.26076 10.0884 1.19193 10.001 1.14608C9.91361 1.10022 9.81534 1.07908 9.7168 1.08492C9.61826 1.09076 9.52318 1.12336 9.44179 1.17922L2.40012 6.05422C2.10816 6.25626 2.10816 6.74268 2.40012 6.94526L9.44179 11.8203C9.52301 11.8767 9.61814 11.9098 9.71684 11.9159C9.81555 11.9221 9.91405 11.9011 10.0017 11.8552C10.0893 11.8093 10.1626 11.7403 10.2137 11.6556C10.2649 11.571 10.2918 11.4739 10.2917 11.375Z" fill="#454545"/>
</svg>
