<svg width="16" height="16" viewBox="0 0 16 16" fill="none" xmlns="http://www.w3.org/2000/svg">
<g clip-path="url(#clip0_1062_317)">
<path fill-rule="evenodd" clip-rule="evenodd" d="M7.706 0.290017C7.484 0.362017 7.356 0.490017 7.294 0.699017C7.259 0.816017 7.253 1.08802 7.253 2.50802C7.253 4.38902 7.251 4.36502 7.443 4.55702C7.7 4.81302 8.3 4.81302 8.557 4.55702C8.749 4.36502 8.74699 4.38902 8.74699 2.50802C8.74699 0.688017 8.74399 0.656017 8.59599 0.480017C8.47199 0.333017 8.339 0.284017 8.04 0.276017C7.92847 0.269731 7.8166 0.274421 7.706 0.290017ZM2.753 2.26602C2.595 2.33802 2.362 2.56602 2.281 2.72802C2.23968 2.809 2.21714 2.89826 2.21506 2.98915C2.21299 3.08004 2.23142 3.17023 2.269 3.25302C2.343 3.41802 4.667 5.75002 4.85 5.84302C5.109 5.97602 5.375 5.91102 5.643 5.64902C5.907 5.39102 5.977 5.11102 5.843 4.85002C5.75 4.66702 3.418 2.34302 3.253 2.26902C3.17415 2.23487 3.08922 2.21701 3.0033 2.21649C2.91738 2.21598 2.83225 2.23282 2.753 2.26602ZM12.853 2.28202C12.73 2.33902 12.52 2.53602 11.518 3.54102C10.597 4.46402 10.316 4.76202 10.271 4.86002C10.2336 4.94127 10.2143 5.02968 10.2145 5.11913C10.2147 5.20857 10.2343 5.29691 10.272 5.37802C10.342 5.52802 10.572 5.76402 10.727 5.84502C10.884 5.92702 11.117 5.92602 11.28 5.84302C11.447 5.75702 13.757 3.44702 13.843 3.28002C13.884 3.19404 13.9055 3.10009 13.906 3.00485C13.9065 2.90962 13.886 2.81544 13.846 2.72902C13.7353 2.54395 13.579 2.39039 13.392 2.28302C13.3092 2.23831 13.2167 2.21482 13.1226 2.21465C13.0286 2.21447 12.9359 2.23762 12.853 2.28202ZM0.698996 7.29202C0.403996 7.38502 0.257996 7.62002 0.257996 7.99902C0.258996 8.38602 0.402996 8.61802 0.697996 8.70602C0.815996 8.74102 1.079 8.74702 2.508 8.74702C3.997 8.74702 4.196 8.74202 4.318 8.70202C4.40761 8.67257 4.48905 8.62248 4.55576 8.55578C4.62246 8.48908 4.67255 8.40763 4.702 8.31802C4.788 8.05302 4.745 7.67702 4.608 7.49102C4.55308 7.43132 4.48851 7.38129 4.417 7.34302L4.28 7.26702L2.547 7.26102C1.152 7.25702 0.790996 7.26302 0.698996 7.29202ZM11.745 7.27802C11.6098 7.31527 11.4876 7.38936 11.392 7.49202C11.255 7.67702 11.212 8.05302 11.298 8.31802C11.356 8.49802 11.502 8.64402 11.682 8.70202C11.804 8.74202 12.003 8.74702 13.492 8.74702C14.921 8.74702 15.184 8.74102 15.302 8.70602C15.597 8.61802 15.741 8.38602 15.742 7.99902C15.742 7.61402 15.595 7.38302 15.29 7.29102C15.187 7.26002 14.864 7.25402 13.496 7.25602C12.578 7.25802 11.79 7.26802 11.745 7.27802ZM4.853 10.282C4.73 10.339 4.52 10.536 3.518 11.541C2.597 12.464 2.316 12.762 2.271 12.86C2.23361 12.9413 2.21433 13.0297 2.2145 13.1191C2.21468 13.2086 2.23429 13.2969 2.272 13.378C2.342 13.528 2.572 13.764 2.727 13.845C2.884 13.927 3.117 13.926 3.28 13.843C3.447 13.757 5.757 11.447 5.843 11.28C5.88396 11.194 5.90546 11.1001 5.90598 11.0049C5.9065 10.9096 5.88602 10.8154 5.846 10.729C5.73532 10.544 5.579 10.3904 5.392 10.283C5.30924 10.2383 5.21668 10.2148 5.12262 10.2146C5.02856 10.2145 4.93592 10.2376 4.853 10.282ZM10.753 10.266C10.595 10.338 10.362 10.566 10.281 10.728C10.2397 10.809 10.2171 10.8983 10.2151 10.9891C10.213 11.08 10.2314 11.1702 10.269 11.253C10.343 11.418 12.667 13.75 12.85 13.843C13.109 13.976 13.375 13.911 13.643 13.649C13.907 13.391 13.977 13.111 13.843 12.85C13.75 12.667 11.418 10.343 11.253 10.269C11.1741 10.2349 11.0892 10.217 11.0033 10.2165C10.9174 10.216 10.8322 10.2328 10.753 10.266ZM7.745 11.277C7.60989 11.3151 7.4878 11.3894 7.392 11.492C7.254 11.678 7.253 11.691 7.253 13.489C7.253 14.921 7.259 15.184 7.294 15.302C7.382 15.597 7.615 15.741 8 15.741C8.385 15.741 8.618 15.597 8.706 15.302C8.768 15.09 8.767 11.875 8.704 11.69C8.68463 11.6154 8.64917 11.546 8.60011 11.4866C8.55105 11.4271 8.48957 11.3792 8.42 11.346C8.31 11.286 8.246 11.271 8.057 11.264C7.95282 11.2577 7.84828 11.2621 7.745 11.277Z" fill="#757676"/>
</g>
<defs>
<clipPath id="clip0_1062_317">
<rect width="16" height="16" fill="white"/>
</clipPath>
</defs>
</svg>
