<svg width="18" height="18" viewBox="0 0 18 18" fill="none" xmlns="http://www.w3.org/2000/svg">
<path d="M3.375 4.78125C3.375 3.96074 3.70095 3.17383 4.28114 2.59364C4.86133 2.01345 5.64824 1.6875 6.46875 1.6875C7.28926 1.6875 8.07617 2.01345 8.65636 2.59364C9.23655 3.17383 9.5625 3.96074 9.5625 4.78125C9.5625 5.60176 9.23655 6.38867 8.65636 6.96886C8.07617 7.54905 7.28926 7.875 6.46875 7.875C5.64824 7.875 4.86133 7.54905 4.28114 6.96886C3.70095 6.38867 3.375 5.60176 3.375 4.78125ZM10.6875 6.46875C10.6875 6.13634 10.753 5.80719 10.8802 5.50008C11.0074 5.19298 11.1938 4.91393 11.4289 4.67889C11.6639 4.44384 11.943 4.25739 12.2501 4.13018C12.5572 4.00297 12.8863 3.9375 13.2188 3.9375C13.5512 3.9375 13.8803 4.00297 14.1874 4.13018C14.4945 4.25739 14.7736 4.44384 15.0086 4.67889C15.2437 4.91393 15.4301 5.19298 15.5573 5.50008C15.6845 5.80719 15.75 6.13634 15.75 6.46875C15.75 7.14008 15.4833 7.78391 15.0086 8.25861C14.5339 8.73332 13.8901 9 13.2188 9C12.5474 9 11.9036 8.73332 11.4289 8.25861C10.9542 7.78391 10.6875 7.14008 10.6875 6.46875ZM1.125 14.3438C1.125 12.9265 1.688 11.5673 2.69015 10.5651C3.6923 9.563 5.0515 9 6.46875 9C7.886 9 9.2452 9.563 10.2474 10.5651C11.2495 11.5673 11.8125 12.9265 11.8125 14.3438V14.346L11.8117 14.4352C11.8102 14.5306 11.7843 14.624 11.7367 14.7067C11.6891 14.7894 11.6212 14.8585 11.5395 14.9078C10.0089 15.8295 8.25545 16.3152 6.46875 16.3125C4.61475 16.3125 2.87925 15.7995 1.39875 14.9078C1.31689 14.8586 1.24888 14.7895 1.20111 14.7068C1.15335 14.6242 1.12742 14.5307 1.12575 14.4352L1.125 14.3438ZM12.9375 14.346L12.9368 14.454C12.9326 14.704 12.8729 14.9499 12.762 15.174C14.0713 15.2548 15.3791 14.9937 16.557 14.4165C16.6481 14.372 16.7255 14.3036 16.7809 14.2188C16.8364 14.1339 16.8678 14.0356 16.872 13.9343C16.8985 13.3052 16.7621 12.6799 16.4759 12.1191C16.1898 11.5582 15.7637 11.0807 15.2389 10.7329C14.7141 10.385 14.1083 10.1786 13.4803 10.1336C12.8523 10.0886 12.2233 10.2065 11.6542 10.476C12.4891 11.5924 12.9392 12.9497 12.9368 14.3438L12.9375 14.346Z" fill="#454545"/>
</svg>
