<svg width="20" height="20" viewBox="0 0 20 20" fill="none" xmlns="http://www.w3.org/2000/svg">
<path d="M2.5 10.8333H3.33333V16.6667C3.33333 17.5858 4.08083 18.3333 5 18.3333H15C15.9192 18.3333 16.6667 17.5858 16.6667 16.6667V10.8333H17.5C17.6648 10.8333 17.8259 10.7844 17.9629 10.6928C18.0999 10.6013 18.2067 10.4711 18.2697 10.3189C18.3328 10.1666 18.3493 9.99911 18.3171 9.83748C18.285 9.67585 18.2057 9.52738 18.0892 9.41084L10.5892 1.91084C10.5118 1.83338 10.42 1.77194 10.3189 1.73001C10.2178 1.68808 10.1094 1.6665 10 1.6665C9.89055 1.6665 9.78218 1.68808 9.68109 1.73001C9.57999 1.77194 9.48815 1.83338 9.41083 1.91084L1.91083 9.41084C1.79432 9.52738 1.71498 9.67585 1.68284 9.83748C1.6507 9.99911 1.66721 10.1666 1.73026 10.3189C1.79332 10.4711 1.90011 10.6013 2.03711 10.6928C2.17412 10.7844 2.3352 10.8333 2.5 10.8333ZM8.33333 16.6667V12.5H11.6667V16.6667H8.33333ZM10 3.67834L15 8.67834V12.5L15.0008 16.6667H13.3333V12.5C13.3333 11.5808 12.5858 10.8333 11.6667 10.8333H8.33333C7.41416 10.8333 6.66666 11.5808 6.66666 12.5V16.6667H5V8.67834L10 3.67834Z" fill="#454545"/>
</svg>
