<svg width="13" height="13" viewBox="0 0 13 13" fill="none" xmlns="http://www.w3.org/2000/svg">
<path d="M2.70834 1.62499V11.375C2.70865 11.4737 2.73587 11.5705 2.78708 11.6549C2.83829 11.7392 2.91155 11.8081 2.99897 11.8539C3.08639 11.8998 3.18466 11.9209 3.2832 11.9151C3.38174 11.9092 3.47682 11.8766 3.55821 11.8208L10.5999 6.94578C10.8918 6.74374 10.8918 6.25732 10.5999 6.05474L3.55821 1.17974C3.47699 1.12331 3.38186 1.09022 3.28316 1.08406C3.18445 1.0779 3.08595 1.09891 2.99834 1.14481C2.91074 1.1907 2.83739 1.25973 2.78626 1.34438C2.73513 1.42904 2.70818 1.52609 2.70834 1.62499Z" fill="#454545"/>
</svg>
