<svg width="16" height="16" viewBox="0 0 16 16" fill="none" xmlns="http://www.w3.org/2000/svg">
<path d="M11.3333 5.33337H13.3333L15.3333 8.03737V12H13.9767C13.8964 12.5554 13.6187 13.0633 13.1945 13.4307C12.7702 13.798 12.2278 14.0002 11.6667 14.0002C11.1055 14.0002 10.5631 13.798 10.1389 13.4307C9.71462 13.0633 9.43693 12.5554 9.35666 12H5.97666C5.8974 12.5562 5.62013 13.0652 5.19578 13.4333C4.77142 13.8015 4.22847 14.0042 3.66666 14.0042C3.10484 14.0042 2.56189 13.8015 2.13754 13.4333C1.71318 13.0652 1.43591 12.5562 1.35666 12H0.666656V4.00004C0.666656 3.82323 0.736894 3.65366 0.861919 3.52864C0.986943 3.40361 1.15651 3.33337 1.33332 3.33337H10.6667C10.8435 3.33337 11.013 3.40361 11.1381 3.52864C11.2631 3.65366 11.3333 3.82323 11.3333 4.00004V5.33337ZM11.3333 6.66671V8.66671H14V8.47671L12.6613 6.66671H11.3333Z" fill="#454545"/>
</svg>
