<svg width="13" height="12" viewBox="0 0 13 12" fill="none" xmlns="http://www.w3.org/2000/svg">
<path d="M2.19043 3H3.19043H11.1904" stroke="#888888" stroke-linecap="round" stroke-linejoin="round"/>
<path d="M10.1904 3V10C10.1904 10.2652 10.0851 10.5196 9.89754 10.7071C9.71 10.8946 9.45565 11 9.19043 11H4.19043C3.92521 11 3.67086 10.8946 3.48332 10.7071C3.29579 10.5196 3.19043 10.2652 3.19043 10V3M4.69043 3V2C4.69043 1.73478 4.79579 1.48043 4.98332 1.29289C5.17086 1.10536 5.42521 1 5.69043 1H7.69043C7.95565 1 8.21 1.10536 8.39754 1.29289C8.58507 1.48043 8.69043 1.73478 8.69043 2V3" stroke="#888888" stroke-linecap="round" stroke-linejoin="round"/>
<path d="M5.69043 5.5V8.5" stroke="#888888" stroke-linecap="round" stroke-linejoin="round"/>
<path d="M7.69043 5.5V8.5" stroke="#888888" stroke-linecap="round" stroke-linejoin="round"/>
</svg>
