<svg width="16" height="16" viewBox="0 0 16 16" fill="none" xmlns="http://www.w3.org/2000/svg">
<rect width="16" height="16" rx="8" fill="#F2B8B5"/>
<path d="M9.45833 11.3022L7.6875 9.53133L8.27083 8.948L9.45833 10.1355L11.8125 7.78133L12.3958 8.36466L9.45833 11.3022ZM11.75 7.16675H10.9167V5.08341H10.0833V6.33341H5.91667V5.08341H5.08333V10.9167H7.58333V11.7501H4.25V4.25008H6.82292C6.89931 4.00703 7.04861 3.80744 7.27083 3.65133C7.49306 3.49522 7.73611 3.41703 8 3.41675C8.27778 3.41675 8.52611 3.49494 8.745 3.65133C8.96389 3.80772 9.11139 4.0073 9.1875 4.25008H11.75V7.16675ZM8 5.08341C8.11806 5.08341 8.21708 5.04341 8.29708 4.96341C8.37708 4.88341 8.41694 4.78453 8.41667 4.66675C8.41667 4.54869 8.37667 4.4498 8.29667 4.37008C8.21667 4.29036 8.11778 4.25036 8 4.25008C7.88194 4.25008 7.78306 4.29008 7.70333 4.37008C7.62361 4.45008 7.58361 4.54897 7.58333 4.66675C7.58333 4.7848 7.62333 4.88383 7.70333 4.96383C7.78333 5.04383 7.88222 5.08369 8 5.08341Z" fill="white"/>
</svg>
