<svg width="20" height="20" viewBox="0 0 20 20" fill="none" xmlns="http://www.w3.org/2000/svg">
<rect width="20" height="20" rx="10" fill="#6750A4"/>
<path d="M13.3333 13.75V12.9167C13.3333 12.4746 13.1577 12.0507 12.8452 11.7382C12.5326 11.4256 12.1087 11.25 11.6667 11.25H8.33332C7.8913 11.25 7.46737 11.4256 7.15481 11.7382C6.84225 12.0507 6.66666 12.4746 6.66666 12.9167V13.75" stroke="white" stroke-linecap="round" stroke-linejoin="round"/>
<path d="M10 9.58333C10.9205 9.58333 11.6667 8.83714 11.6667 7.91667C11.6667 6.99619 10.9205 6.25 10 6.25C9.07954 6.25 8.33334 6.99619 8.33334 7.91667C8.33334 8.83714 9.07954 9.58333 10 9.58333Z" stroke="white" stroke-linecap="round" stroke-linejoin="round"/>
</svg>
