<svg width="13" height="12" viewBox="0 0 13 12" fill="none" xmlns="http://www.w3.org/2000/svg">
<g clip-path="url(#clip0_854_822)">
<path d="M6.19043 2H2.69043C2.42521 2 2.17086 2.10536 1.98332 2.29289C1.79579 2.48043 1.69043 2.73478 1.69043 3V10C1.69043 10.2652 1.79579 10.5196 1.98332 10.7071C2.17086 10.8946 2.42521 11 2.69043 11H9.69043C9.95565 11 10.21 10.8946 10.3975 10.7071C10.5851 10.5196 10.6904 10.2652 10.6904 10V6.5" stroke="#888888" stroke-linecap="round" stroke-linejoin="round"/>
<path d="M9.94043 1.24999C10.1393 1.05108 10.4091 0.939331 10.6904 0.939331C10.9717 0.939331 11.2415 1.05108 11.4404 1.24999C11.6393 1.4489 11.7511 1.71869 11.7511 1.99999C11.7511 2.2813 11.6393 2.55108 11.4404 2.74999L6.69043 7.49999L4.69043 7.99999L5.19043 5.99999L9.94043 1.24999Z" stroke="#888888" stroke-linecap="round" stroke-linejoin="round"/>
</g>
<defs>
<clipPath id="clip0_854_822">
<rect width="12" height="12" fill="white" transform="translate(0.69043)"/>
</clipPath>
</defs>
</svg>
