<svg width="16" height="16" viewBox="0 0 16 16" fill="none" xmlns="http://www.w3.org/2000/svg">
<rect width="16" height="16" rx="8" fill="#01907F"/>
<g clip-path="url(#clip0_906_336)">
<path d="M7.97592 3C6.24335 3 4.78209 3.08375 4.56409 3.195C4.1833 3.30875 3.89676 4.06583 3.89581 4.96417V5.41042H3.79205C3.78142 5.38992 3.7673 5.37095 3.75016 5.35417C3.79511 5.30886 3.81979 5.25084 3.81965 5.19083V4.96417C3.82571 4.91114 3.80784 4.85814 3.76987 4.81649C3.73189 4.77484 3.67682 4.74784 3.61641 4.74125H3.20802C3.14726 4.74794 3.09191 4.77519 3.05383 4.81717C3.01575 4.85915 2.99797 4.91252 3.0043 4.96583V4.965V5.19167C3.0043 5.25417 3.03048 5.31167 3.07379 5.35542L3.07331 5.355C3.02837 5.40031 3.00368 5.45833 3.00382 5.51833V6.6375C3.00287 6.64375 3.00287 6.65042 3.00287 6.6575C3.00287 6.76167 3.09188 6.84792 3.20706 6.86042H3.61593C3.65422 6.85869 3.69114 6.84737 3.72228 6.82779C3.75342 6.80821 3.77747 6.78121 3.79157 6.75L3.79205 6.74875H3.89581V8.75792C3.89581 8.8375 3.99339 8.91125 4.15094 8.95083V9.21167C3.9258 9.23708 3.77015 9.32583 3.77015 9.4275V11.6608C3.75415 11.9376 3.84502 12.211 4.02813 12.4371L4.02528 12.4333V12.8171C4.02528 12.9183 4.11904 13.0004 4.23471 13.0004H5.09052C5.14607 13.0004 5.19934 12.9811 5.23861 12.9467C5.27789 12.9123 5.29995 12.8657 5.29995 12.8171V12.5542H10.6533V12.8171C10.6533 12.9183 10.7471 13.0004 10.8627 13.0004H11.7186C11.7461 13.0004 11.7733 12.9957 11.7987 12.9865C11.8241 12.9772 11.8472 12.9637 11.8667 12.9467C11.8861 12.9297 11.9015 12.9095 11.9121 12.8872C11.9226 12.865 11.928 12.8412 11.928 12.8171V12.4338C12.11 12.2078 12.1999 11.9348 12.1831 11.6588V11.6617V9.42833C12.1831 9.32667 12.0256 9.23792 11.8023 9.2125V8.95167C11.9599 8.91208 12.057 8.83833 12.0575 8.75875V6.75042H12.1612C12.1898 6.81375 12.2574 6.85833 12.3369 6.86208H12.7438C12.8046 6.8554 12.8599 6.82814 12.898 6.78616C12.9361 6.74418 12.9539 6.69082 12.9475 6.6375V6.63833V5.51917C12.9477 5.45904 12.923 5.40089 12.8781 5.35542L12.8785 5.35583C12.9235 5.31053 12.9482 5.25251 12.948 5.1925V4.96667C12.9541 4.91364 12.9362 4.86064 12.8982 4.81899C12.8603 4.77734 12.8052 4.75034 12.7448 4.74375H12.3359C12.2752 4.75044 12.2198 4.77769 12.1817 4.81967C12.1436 4.86165 12.1259 4.91502 12.1322 4.96833V4.9675V5.19417C12.1322 5.25667 12.1584 5.31417 12.2017 5.35792L12.2012 5.3575C12.1845 5.37387 12.1706 5.39226 12.1598 5.41208L12.1593 5.41333H12.0556V4.965C12.0556 4.06208 11.7662 3.30167 11.3825 3.19375C11.1493 3.08292 9.69516 3.00083 7.97592 3.00083V3ZM4.47841 4.29458H11.473C11.5962 4.29458 11.699 4.37125 11.7228 4.47333L11.7233 4.47458C11.7719 4.68708 11.7995 4.93167 11.7995 5.18208V5.19792V5.19708V6.75C11.7995 6.87333 11.6852 6.97333 11.5444 6.97333H4.40606C4.3384 6.97333 4.27351 6.9498 4.22566 6.90792C4.17781 6.86604 4.15094 6.80923 4.15094 6.75V5.1825C4.15094 4.93208 4.17854 4.6875 4.23138 4.45083L4.22709 4.47458C4.23856 4.42384 4.26979 4.37816 4.31545 4.34533C4.36111 4.3125 4.41837 4.29457 4.47746 4.29458H4.47841ZM4.78827 9.20542H5.3347C5.40277 9.20542 5.45798 9.25208 5.46179 9.31083V9.31125L5.5527 10.7621V10.7679C5.5527 10.8296 5.49558 10.8796 5.42514 10.8796H4.78827C4.75444 10.8796 4.722 10.8678 4.69807 10.8469C4.67415 10.8259 4.66071 10.7975 4.66071 10.7679V9.31708C4.66071 9.25542 4.71783 9.20542 4.78827 9.20542ZM10.6167 9.20542H11.1631C11.2335 9.20542 11.2907 9.25542 11.2907 9.31708V10.7667C11.2907 10.8283 11.2335 10.8783 11.1631 10.8783H10.5258C10.4919 10.8783 10.4595 10.8666 10.4356 10.8456C10.4116 10.8247 10.3982 10.7963 10.3982 10.7667V10.7604L10.4891 9.31C10.4939 9.25167 10.5491 9.20583 10.6162 9.20583L10.6167 9.20542ZM5.87208 9.47208H10.0798C10.115 9.47208 10.1435 9.49708 10.1435 9.52792V9.59458C10.1435 9.62542 10.115 9.65042 10.0798 9.65042H5.87208C5.85517 9.65042 5.83894 9.64453 5.82698 9.63406C5.81502 9.62359 5.8083 9.60939 5.8083 9.59458V9.52792C5.8083 9.49708 5.83686 9.47208 5.87208 9.47208ZM5.89731 9.87375H10.0541C10.0893 9.87375 10.1178 9.89875 10.1178 9.92958V9.99625C10.1178 10.0271 10.0893 10.0521 10.0541 10.0521H5.89731C5.88039 10.0521 5.86417 10.0462 5.85221 10.0357C5.84025 10.0253 5.83353 10.0111 5.83353 9.99625V9.92958C5.83353 9.89875 5.86209 9.87375 5.89731 9.87375ZM5.92301 10.2754H10.0288C10.0641 10.2754 10.0926 10.3004 10.0926 10.3313V10.3979C10.0926 10.4288 10.0641 10.4538 10.0288 10.4538H5.92301C5.90663 10.4538 5.89088 10.4482 5.87907 10.4383C5.86726 10.4283 5.86032 10.4148 5.85971 10.4004V10.3338C5.85971 10.3029 5.88827 10.2779 5.92349 10.2779L5.92301 10.2754ZM5.94872 10.6771H10.0031C10.0383 10.6771 10.0669 10.7021 10.0669 10.7329V10.7996C10.0669 10.8304 10.0383 10.8554 10.0031 10.8554H5.94872C5.9318 10.8554 5.91558 10.8495 5.90362 10.8391C5.89165 10.8286 5.88494 10.8144 5.88494 10.7996V10.7329C5.88494 10.7021 5.91349 10.6771 5.94872 10.6771Z" fill="white"/>
</g>
<defs>
<clipPath id="clip0_906_336">
<rect width="10" height="10" fill="white" transform="translate(3 3)"/>
</clipPath>
</defs>
</svg>
