<svg width="62" height="62" viewBox="0 0 62 62" fill="none" xmlns="http://www.w3.org/2000/svg">
<path d="M46.5 20.6666C46.5 16.5558 44.867 12.6133 41.9602 9.70647C39.0533 6.79966 35.1109 5.16663 31 5.16663C26.8891 5.16663 22.9467 6.79966 20.0398 9.70647C17.133 12.6133 15.5 16.5558 15.5 20.6666C15.5 38.75 7.75 43.9166 7.75 43.9166H54.25C54.25 43.9166 46.5 38.75 46.5 20.6666Z" fill="#4C87FC" stroke="#4C87FC" stroke-width="2" stroke-linecap="round" stroke-linejoin="round"/>
<path d="M35.4691 54.25C35.0149 55.033 34.363 55.6828 33.5787 56.1346C32.7943 56.5864 31.9051 56.8242 30.9999 56.8242C30.0948 56.8242 29.2055 56.5864 28.4212 56.1346C27.6368 55.6828 26.9849 55.033 26.5308 54.25" stroke="black" stroke-width="2" stroke-linecap="round" stroke-linejoin="round"/>
</svg>
